<svg xmlns="http://www.w3.org/2000/svg" xmlns:xlink="http://www.w3.org/1999/xlink" width="200" zoomAndPan="magnify" viewBox="0 0 150 52.499999" height="70" preserveAspectRatio="xMidYMid meet" version="1.0"><defs><g/><clipPath id="a867172fe8"><path d="M 3.160156 1.824219 L 51 1.824219 L 51 32 L 3.160156 32 Z M 3.160156 1.824219 " clip-rule="nonzero"/></clipPath><clipPath id="d4a7b01111"><path d="M 7 24 L 53.953125 24 L 53.953125 49.820312 L 7 49.820312 Z M 7 24 " clip-rule="nonzero"/></clipPath></defs><g clip-path="url(#a867172fe8)"><path fill="#ffffff" d="M 4.121094 12.703125 C 3.730469 14.066406 5.304688 15.894531 8.328125 17.566406 C 9.507812 14.265625 11.851562 11.601562 15.375 11.136719 C 20.195312 10.5 22.535156 12.371094 26.542969 11.402344 C 30.15625 10.523438 32.871094 6.601562 38.933594 4.863281 C 39.636719 4.664062 40.335938 4.578125 41.039062 4.578125 C 42.328125 3.410156 42.8125 1.78125 42.8125 1.78125 L 42.613281 3.234375 C 42.199219 6.207031 39.898438 8.519531 36.941406 8.9375 L 35.496094 9.15625 L 36.941406 9.355469 C 39.898438 9.773438 42.199219 12.105469 42.613281 15.058594 L 42.8125 16.507812 L 43.03125 15.058594 C 43.445312 12.105469 45.746094 9.773438 48.699219 9.355469 L 50.144531 9.15625 C 50.144531 9.15625 49.597656 9.464844 49.050781 10.148438 C 50.210938 12.921875 50.1875 16.554688 48.066406 20.515625 C 45.699219 24.984375 43.972656 28.441406 42.722656 31.414062 C 38.101562 31.324219 31.929688 30.179688 24.746094 28.15625 C 8.261719 23.554688 0.707031 14.835938 4.121094 12.703125 Z M 32.519531 16.507812 L 32.980469 16.574219 C 33.898438 16.707031 34.621094 17.433594 34.753906 18.359375 L 34.820312 18.800781 L 34.886719 18.359375 C 35.015625 17.433594 35.738281 16.707031 36.660156 16.574219 L 37.097656 16.507812 L 36.660156 16.445312 C 35.738281 16.3125 35.015625 15.585938 34.886719 14.660156 L 34.820312 14.199219 L 34.753906 14.660156 C 34.621094 15.585938 33.898438 16.3125 32.980469 16.445312 Z M 32.519531 16.507812 " fill-opacity="1" fill-rule="evenodd"/></g><g clip-path="url(#d4a7b01111)"><path fill="#1e84b5" d="M 51.414062 27.824219 C 55.507812 36.191406 44.320312 38.746094 24.375 32.625 C 18.464844 30.820312 12.203125 27.804688 7.558594 24.675781 C 7.691406 25.734375 7.933594 26.746094 8.28125 27.671875 C 11.28125 35.617188 12.070312 39.359375 11.917969 45.105469 C 11.761719 51.335938 17.5 49.863281 19.800781 42.992188 C 20.9375 39.582031 22.972656 38.765625 24.242188 38.589844 C 27.046875 38.746094 27.988281 40.507812 29.542969 44.863281 C 31.90625 51.46875 38.871094 51.402344 39.527344 43.875 C 39.65625 42.640625 39.789062 41.453125 39.984375 40.308594 C 42.917969 40.550781 45.789062 40.328125 48.414062 39.515625 C 54.808594 37.488281 55.09375 30.996094 51.414062 27.824219 Z M 51.414062 27.824219 " fill-opacity="1" fill-rule="nonzero"/></g><path fill="#ffffff" d="M 48.414062 8.894531 C 47.539062 7.441406 46.292969 6.296875 44.890625 5.546875 C 44.035156 4.910156 43.117188 3.566406 43.074219 3.476562 C 43.554688 6.230469 45.679688 8.386719 48.414062 8.894531 Z M 48.414062 8.894531 " fill-opacity="1" fill-rule="nonzero"/><g fill="#1e84b5" fill-opacity="1"><g transform="translate(77.200265, 42.34669)"><g><path d="M 5.59375 -10.359375 C 9.21875 -10.359375 11.03125 -8.628906 11.03125 -5.171875 C 11.03125 -1.722656 9.21875 0 5.59375 0 L 1.109375 0 L 1.109375 -10.359375 Z M 4.4375 -2.484375 L 5.53125 -2.484375 C 6.925781 -2.484375 7.625 -3.226562 7.625 -4.71875 L 7.625 -5.625 C 7.625 -7.125 6.925781 -7.875 5.53125 -7.875 L 4.4375 -7.875 Z M 4.4375 -2.484375 "/></g></g></g><g fill="#1e84b5" fill-opacity="1"><g transform="translate(88.904715, 42.34669)"><g><path d="M 5.015625 -8.125 C 6.460938 -8.125 7.570312 -7.78125 8.34375 -7.09375 C 9.113281 -6.414062 9.5 -5.375 9.5 -3.96875 L 9.5 -3.453125 L 3.53125 -3.453125 C 3.53125 -2.890625 3.65625 -2.460938 3.90625 -2.171875 C 4.164062 -1.878906 4.570312 -1.734375 5.125 -1.734375 C 5.632812 -1.734375 6.003906 -1.835938 6.234375 -2.046875 C 6.472656 -2.253906 6.59375 -2.535156 6.59375 -2.890625 L 9.5 -2.890625 C 9.5 -1.921875 9.128906 -1.164062 8.390625 -0.625 C 7.660156 -0.0820312 6.59375 0.1875 5.1875 0.1875 C 3.71875 0.1875 2.578125 -0.15625 1.765625 -0.84375 C 0.953125 -1.53125 0.546875 -2.570312 0.546875 -3.96875 C 0.546875 -5.332031 0.941406 -6.363281 1.734375 -7.0625 C 2.523438 -7.769531 3.617188 -8.125 5.015625 -8.125 Z M 5.125 -6.21875 C 4.1875 -6.21875 3.660156 -5.769531 3.546875 -4.875 L 6.46875 -4.875 C 6.46875 -5.28125 6.347656 -5.601562 6.109375 -5.84375 C 5.878906 -6.09375 5.550781 -6.21875 5.125 -6.21875 Z M 5.125 -6.21875 "/></g></g></g><g fill="#1e84b5" fill-opacity="1"><g transform="translate(98.939251, 42.34669)"><g><path d="M 6.375 -8.125 C 7.300781 -8.125 7.992188 -7.867188 8.453125 -7.359375 C 8.921875 -6.847656 9.15625 -6.109375 9.15625 -5.140625 L 9.15625 0 L 6.15625 0 L 6.15625 -4.78125 C 6.15625 -5.125 6.066406 -5.394531 5.890625 -5.59375 C 5.710938 -5.800781 5.460938 -5.90625 5.140625 -5.90625 C 4.773438 -5.90625 4.472656 -5.785156 4.234375 -5.546875 C 4.003906 -5.304688 3.890625 -5.015625 3.890625 -4.671875 L 3.890625 0 L 0.90625 0 L 0.90625 -7.9375 L 3.359375 -7.9375 L 3.546875 -6.734375 C 3.859375 -7.160156 4.265625 -7.5 4.765625 -7.75 C 5.273438 -8 5.8125 -8.125 6.375 -8.125 Z M 6.375 -8.125 "/></g></g></g><g fill="#1e84b5" fill-opacity="1"><g transform="translate(108.973787, 42.34669)"><g><path d="M 6.203125 -7.9375 L 6.203125 -5.90625 L 4.515625 -5.90625 L 4.515625 -2.890625 C 4.515625 -2.523438 4.570312 -2.257812 4.6875 -2.09375 C 4.8125 -1.925781 5.035156 -1.84375 5.359375 -1.84375 L 6.203125 -1.84375 L 6.203125 -0.09375 C 5.960938 -0.0078125 5.648438 0.0546875 5.265625 0.109375 C 4.878906 0.160156 4.546875 0.1875 4.265625 0.1875 C 3.390625 0.1875 2.710938 0.0234375 2.234375 -0.296875 C 1.753906 -0.617188 1.515625 -1.164062 1.515625 -1.9375 L 1.515625 -5.90625 L 0.40625 -5.90625 L 0.40625 -7.9375 L 1.640625 -7.9375 L 2.28125 -10.359375 L 4.515625 -10.359375 L 4.515625 -7.9375 Z M 6.203125 -7.9375 "/></g></g></g><g fill="#1e84b5" fill-opacity="1"><g transform="translate(115.653453, 42.34669)"><g><path d="M 4.828125 -8.125 C 6.046875 -8.125 7.035156 -7.921875 7.796875 -7.515625 C 8.554688 -7.109375 8.9375 -6.445312 8.9375 -5.53125 L 8.9375 -2.4375 C 8.9375 -2.269531 8.972656 -2.128906 9.046875 -2.015625 C 9.128906 -1.898438 9.253906 -1.84375 9.421875 -1.84375 L 9.96875 -1.84375 L 9.96875 -0.125 C 9.9375 -0.101562 9.859375 -0.0664062 9.734375 -0.015625 C 9.609375 0.0234375 9.425781 0.0664062 9.1875 0.109375 C 8.957031 0.160156 8.691406 0.1875 8.390625 0.1875 C 7.804688 0.1875 7.328125 0.0976562 6.953125 -0.078125 C 6.578125 -0.253906 6.320312 -0.5 6.1875 -0.8125 C 5.800781 -0.507812 5.375 -0.265625 4.90625 -0.078125 C 4.4375 0.0976562 3.882812 0.1875 3.25 0.1875 C 1.382812 0.1875 0.453125 -0.554688 0.453125 -2.046875 C 0.453125 -2.816406 0.660156 -3.40625 1.078125 -3.8125 C 1.492188 -4.21875 2.09375 -4.492188 2.875 -4.640625 C 3.65625 -4.796875 4.675781 -4.875 5.9375 -4.875 L 5.9375 -5.265625 C 5.9375 -5.578125 5.828125 -5.8125 5.609375 -5.96875 C 5.398438 -6.132812 5.125 -6.21875 4.78125 -6.21875 C 4.46875 -6.21875 4.195312 -6.160156 3.96875 -6.046875 C 3.75 -5.941406 3.640625 -5.765625 3.640625 -5.515625 L 3.640625 -5.46875 L 0.6875 -5.46875 C 0.675781 -5.507812 0.671875 -5.578125 0.671875 -5.671875 C 0.671875 -6.421875 1.03125 -7.015625 1.75 -7.453125 C 2.46875 -7.898438 3.492188 -8.125 4.828125 -8.125 Z M 5.9375 -3.453125 C 5.09375 -3.453125 4.46875 -3.359375 4.0625 -3.171875 C 3.65625 -2.992188 3.453125 -2.75 3.453125 -2.4375 C 3.453125 -1.9375 3.789062 -1.6875 4.46875 -1.6875 C 4.863281 -1.6875 5.207031 -1.789062 5.5 -2 C 5.789062 -2.207031 5.9375 -2.46875 5.9375 -2.78125 Z M 5.9375 -3.453125 "/></g></g></g><g fill="#1e84b5" fill-opacity="1"><g transform="translate(125.68799, 42.34669)"><g><path d="M 1.015625 0 L 1.015625 -10.90625 L 4 -10.90625 L 4 0 Z M 1.015625 0 "/></g></g></g><g fill="#1e84b5" fill-opacity="1"><g transform="translate(60.911984, 22.296406)"><g><path d="M 6.921875 -10.359375 C 7.566406 -10.359375 8.140625 -10.207031 8.640625 -9.90625 C 9.140625 -9.613281 9.53125 -9.207031 9.8125 -8.6875 C 10.09375 -8.175781 10.234375 -7.597656 10.234375 -6.953125 L 10.234375 -6.75 C 10.234375 -6.113281 10.09375 -5.535156 9.8125 -5.015625 C 9.53125 -4.492188 9.140625 -4.082031 8.640625 -3.78125 C 8.140625 -3.488281 7.566406 -3.34375 6.921875 -3.34375 L 4.4375 -3.34375 L 4.4375 0 L 1.109375 0 L 1.109375 -10.359375 Z M 4.4375 -5.765625 L 5.8125 -5.765625 C 6.15625 -5.765625 6.414062 -5.851562 6.59375 -6.03125 C 6.769531 -6.207031 6.859375 -6.453125 6.859375 -6.765625 L 6.859375 -6.890625 C 6.859375 -7.210938 6.769531 -7.460938 6.59375 -7.640625 C 6.414062 -7.816406 6.15625 -7.90625 5.8125 -7.90625 L 4.4375 -7.90625 Z M 4.4375 -5.765625 "/></g></g></g><g fill="#1e84b5" fill-opacity="1"><g transform="translate(71.773956, 22.296406)"><g><path d="M 5.734375 -8.140625 C 5.960938 -8.140625 6.164062 -8.109375 6.34375 -8.046875 C 6.53125 -7.992188 6.625 -7.960938 6.625 -7.953125 L 6.625 -5.453125 L 5.65625 -5.453125 C 5.03125 -5.453125 4.578125 -5.289062 4.296875 -4.96875 C 4.023438 -4.644531 3.890625 -4.164062 3.890625 -3.53125 L 3.890625 0 L 0.90625 0 L 0.90625 -7.9375 L 3.359375 -7.9375 L 3.546875 -6.734375 C 3.734375 -7.203125 4.019531 -7.550781 4.40625 -7.78125 C 4.800781 -8.019531 5.242188 -8.140625 5.734375 -8.140625 Z M 5.734375 -8.140625 "/></g></g></g><g fill="#1e84b5" fill-opacity="1"><g transform="translate(78.453622, 22.296406)"><g><path d="M 1.015625 -8.875 L 1.015625 -10.90625 L 4 -10.90625 L 4 -8.875 Z M 1.015625 0 L 1.015625 -7.9375 L 4 -7.9375 L 4 0 Z M 1.015625 0 "/></g></g></g><g fill="#1e84b5" fill-opacity="1"><g transform="translate(83.463363, 22.296406)"><g><path d="M 11.453125 -8.125 C 12.359375 -8.125 13.035156 -7.863281 13.484375 -7.34375 C 13.929688 -6.832031 14.15625 -6.097656 14.15625 -5.140625 L 14.15625 0 L 11.171875 0 L 11.171875 -4.78125 C 11.171875 -5.125 11.085938 -5.394531 10.921875 -5.59375 C 10.753906 -5.800781 10.519531 -5.90625 10.21875 -5.90625 C 9.863281 -5.90625 9.578125 -5.785156 9.359375 -5.546875 C 9.140625 -5.304688 9.03125 -5.015625 9.03125 -4.671875 L 9.03125 0 L 6.03125 0 L 6.03125 -4.78125 C 6.03125 -5.125 5.945312 -5.394531 5.78125 -5.59375 C 5.613281 -5.800781 5.378906 -5.90625 5.078125 -5.90625 C 4.734375 -5.90625 4.445312 -5.785156 4.21875 -5.546875 C 4 -5.304688 3.890625 -5.015625 3.890625 -4.671875 L 3.890625 0 L 0.90625 0 L 0.90625 -7.9375 L 3.359375 -7.9375 L 3.546875 -6.75 C 3.847656 -7.175781 4.242188 -7.507812 4.734375 -7.75 C 5.234375 -8 5.757812 -8.125 6.3125 -8.125 C 7.507812 -8.125 8.316406 -7.664062 8.734375 -6.75 C 9.035156 -7.175781 9.429688 -7.507812 9.921875 -7.75 C 10.410156 -8 10.921875 -8.125 11.453125 -8.125 Z M 11.453125 -8.125 "/></g></g></g><g fill="#1e84b5" fill-opacity="1"><g transform="translate(98.50764, 22.296406)"><g><path d="M 5.015625 -8.125 C 6.460938 -8.125 7.570312 -7.78125 8.34375 -7.09375 C 9.113281 -6.414062 9.5 -5.375 9.5 -3.96875 L 9.5 -3.453125 L 3.53125 -3.453125 C 3.53125 -2.890625 3.65625 -2.460938 3.90625 -2.171875 C 4.164062 -1.878906 4.570312 -1.734375 5.125 -1.734375 C 5.632812 -1.734375 6.003906 -1.835938 6.234375 -2.046875 C 6.472656 -2.253906 6.59375 -2.535156 6.59375 -2.890625 L 9.5 -2.890625 C 9.5 -1.921875 9.128906 -1.164062 8.390625 -0.625 C 7.660156 -0.0820312 6.59375 0.1875 5.1875 0.1875 C 3.71875 0.1875 2.578125 -0.15625 1.765625 -0.84375 C 0.953125 -1.53125 0.546875 -2.570312 0.546875 -3.96875 C 0.546875 -5.332031 0.941406 -6.363281 1.734375 -7.0625 C 2.523438 -7.769531 3.617188 -8.125 5.015625 -8.125 Z M 5.125 -6.21875 C 4.1875 -6.21875 3.660156 -5.769531 3.546875 -4.875 L 6.46875 -4.875 C 6.46875 -5.28125 6.347656 -5.601562 6.109375 -5.84375 C 5.878906 -6.09375 5.550781 -6.21875 5.125 -6.21875 Z M 5.125 -6.21875 "/></g></g></g><g fill="#1e84b5" fill-opacity="1"><g transform="translate(108.542176, 22.296406)"><g><path d="M 6.046875 -10.53125 C 7.578125 -10.53125 8.789062 -10.144531 9.6875 -9.375 C 10.582031 -8.613281 11.03125 -7.519531 11.03125 -6.09375 L 7.859375 -6.09375 C 7.859375 -6.695312 7.695312 -7.171875 7.375 -7.515625 C 7.0625 -7.867188 6.613281 -8.046875 6.03125 -8.046875 C 5.363281 -8.046875 4.867188 -7.832031 4.546875 -7.40625 C 4.234375 -6.988281 4.078125 -6.40625 4.078125 -5.65625 L 4.078125 -4.6875 C 4.078125 -3.945312 4.234375 -3.363281 4.546875 -2.9375 C 4.867188 -2.507812 5.351562 -2.296875 6 -2.296875 C 6.644531 -2.296875 7.128906 -2.460938 7.453125 -2.796875 C 7.785156 -3.128906 7.953125 -3.597656 7.953125 -4.203125 L 11.03125 -4.203125 C 11.03125 -2.785156 10.59375 -1.695312 9.71875 -0.9375 C 8.851562 -0.1875 7.628906 0.1875 6.046875 0.1875 C 4.285156 0.1875 2.945312 -0.265625 2.03125 -1.171875 C 1.125 -2.078125 0.671875 -3.410156 0.671875 -5.171875 C 0.671875 -6.941406 1.125 -8.273438 2.03125 -9.171875 C 2.945312 -10.078125 4.285156 -10.53125 6.046875 -10.53125 Z M 6.046875 -10.53125 "/></g></g></g><g fill="#1e84b5" fill-opacity="1"><g transform="translate(120.246626, 22.296406)"><g><path d="M 4.828125 -8.125 C 6.046875 -8.125 7.035156 -7.921875 7.796875 -7.515625 C 8.554688 -7.109375 8.9375 -6.445312 8.9375 -5.53125 L 8.9375 -2.4375 C 8.9375 -2.269531 8.972656 -2.128906 9.046875 -2.015625 C 9.128906 -1.898438 9.253906 -1.84375 9.421875 -1.84375 L 9.96875 -1.84375 L 9.96875 -0.125 C 9.9375 -0.101562 9.859375 -0.0664062 9.734375 -0.015625 C 9.609375 0.0234375 9.425781 0.0664062 9.1875 0.109375 C 8.957031 0.160156 8.691406 0.1875 8.390625 0.1875 C 7.804688 0.1875 7.328125 0.0976562 6.953125 -0.078125 C 6.578125 -0.253906 6.320312 -0.5 6.1875 -0.8125 C 5.800781 -0.507812 5.375 -0.265625 4.90625 -0.078125 C 4.4375 0.0976562 3.882812 0.1875 3.25 0.1875 C 1.382812 0.1875 0.453125 -0.554688 0.453125 -2.046875 C 0.453125 -2.816406 0.660156 -3.40625 1.078125 -3.8125 C 1.492188 -4.21875 2.09375 -4.492188 2.875 -4.640625 C 3.65625 -4.796875 4.675781 -4.875 5.9375 -4.875 L 5.9375 -5.265625 C 5.9375 -5.578125 5.828125 -5.8125 5.609375 -5.96875 C 5.398438 -6.132812 5.125 -6.21875 4.78125 -6.21875 C 4.46875 -6.21875 4.195312 -6.160156 3.96875 -6.046875 C 3.75 -5.941406 3.640625 -5.765625 3.640625 -5.515625 L 3.640625 -5.46875 L 0.6875 -5.46875 C 0.675781 -5.507812 0.671875 -5.578125 0.671875 -5.671875 C 0.671875 -6.421875 1.03125 -7.015625 1.75 -7.453125 C 2.46875 -7.898438 3.492188 -8.125 4.828125 -8.125 Z M 5.9375 -3.453125 C 5.09375 -3.453125 4.46875 -3.359375 4.0625 -3.171875 C 3.65625 -2.992188 3.453125 -2.75 3.453125 -2.4375 C 3.453125 -1.9375 3.789062 -1.6875 4.46875 -1.6875 C 4.863281 -1.6875 5.207031 -1.789062 5.5 -2 C 5.789062 -2.207031 5.9375 -2.46875 5.9375 -2.78125 Z M 5.9375 -3.453125 "/></g></g></g><g fill="#1e84b5" fill-opacity="1"><g transform="translate(130.281163, 22.296406)"><g><path d="M 5.734375 -8.140625 C 5.960938 -8.140625 6.164062 -8.109375 6.34375 -8.046875 C 6.53125 -7.992188 6.625 -7.960938 6.625 -7.953125 L 6.625 -5.453125 L 5.65625 -5.453125 C 5.03125 -5.453125 4.578125 -5.289062 4.296875 -4.96875 C 4.023438 -4.644531 3.890625 -4.164062 3.890625 -3.53125 L 3.890625 0 L 0.90625 0 L 0.90625 -7.9375 L 3.359375 -7.9375 L 3.546875 -6.734375 C 3.734375 -7.203125 4.019531 -7.550781 4.40625 -7.78125 C 4.800781 -8.019531 5.242188 -8.140625 5.734375 -8.140625 Z M 5.734375 -8.140625 "/></g></g></g><g fill="#1e84b5" fill-opacity="1"><g transform="translate(136.960829, 22.296406)"><g><path d="M 5.015625 -8.125 C 6.460938 -8.125 7.570312 -7.78125 8.34375 -7.09375 C 9.113281 -6.414062 9.5 -5.375 9.5 -3.96875 L 9.5 -3.453125 L 3.53125 -3.453125 C 3.53125 -2.890625 3.65625 -2.460938 3.90625 -2.171875 C 4.164062 -1.878906 4.570312 -1.734375 5.125 -1.734375 C 5.632812 -1.734375 6.003906 -1.835938 6.234375 -2.046875 C 6.472656 -2.253906 6.59375 -2.535156 6.59375 -2.890625 L 9.5 -2.890625 C 9.5 -1.921875 9.128906 -1.164062 8.390625 -0.625 C 7.660156 -0.0820312 6.59375 0.1875 5.1875 0.1875 C 3.71875 0.1875 2.578125 -0.15625 1.765625 -0.84375 C 0.953125 -1.53125 0.546875 -2.570312 0.546875 -3.96875 C 0.546875 -5.332031 0.941406 -6.363281 1.734375 -7.0625 C 2.523438 -7.769531 3.617188 -8.125 5.015625 -8.125 Z M 5.125 -6.21875 C 4.1875 -6.21875 3.660156 -5.769531 3.546875 -4.875 L 6.46875 -4.875 C 6.46875 -5.28125 6.347656 -5.601562 6.109375 -5.84375 C 5.878906 -6.09375 5.550781 -6.21875 5.125 -6.21875 Z M 5.125 -6.21875 "/></g></g></g></svg>