<svg xmlns="http://www.w3.org/2000/svg" xmlns:xlink="http://www.w3.org/1999/xlink" width="250" zoomAndPan="magnify" viewBox="0 0 187.5 74.999997" height="100" preserveAspectRatio="xMidYMid meet" version="1.0"><defs><clipPath id="7d224d15ae"><path d="M 1 31 L 25 31 L 25 55.589844 L 1 55.589844 Z M 1 31 " clip-rule="nonzero"/></clipPath></defs><path fill="#29aa6b" d="M 24.628906 25.21875 L 24.628906 20.265625 C 24.628906 20.265625 12.511719 20.269531 12.402344 20.273438 C 11.179688 20.316406 10 20.578125 8.871094 21.054688 C 7.273438 21.730469 5.933594 22.753906 4.855469 24.117188 C 3.78125 25.472656 3.074219 27.003906 2.734375 28.707031 C 2.410156 30.332031 2.453125 31.949219 2.859375 33.558594 C 3.238281 35.035156 3.894531 36.371094 4.835938 37.5625 C 5.820312 38.808594 7.023438 39.773438 8.449219 40.460938 C 10 41.207031 11.632812 41.523438 13.351562 41.414062 C 14.5625 41.328125 15.726562 41.035156 16.835938 40.53125 L 16.886719 40.511719 L 16.945312 40.480469 C 17.34375 40.292969 17.726562 40.082031 18.097656 39.84375 C 18.171875 39.796875 18.25 39.746094 18.324219 39.695312 L 18.347656 39.679688 L 18.371094 39.660156 C 19.515625 38.871094 20.46875 37.890625 21.222656 36.71875 C 21.378906 36.476562 21.527344 36.226562 21.660156 35.96875 C 22.191406 34.957031 22.558594 33.886719 22.757812 32.757812 C 23.101562 30.800781 22.929688 28.890625 22.242188 27.027344 C 22.050781 26.507812 21.816406 26.003906 21.542969 25.523438 C 21.496094 25.449219 21.382812 25.289062 21.339844 25.21875 Z M 12.730469 36.5 L 12.722656 36.5 C 9.71875 36.5 7.285156 33.976562 7.285156 30.859375 C 7.285156 27.742188 9.71875 25.21875 12.722656 25.21875 C 12.773438 25.21875 12.820312 25.21875 12.867188 25.222656 L 12.890625 25.222656 C 13.335938 25.234375 13.769531 25.304688 14.195312 25.429688 C 16.484375 26.09375 18.164062 28.273438 18.164062 30.859375 C 18.164062 33.753906 16.058594 36.144531 13.347656 36.460938 L 13.207031 36.480469 L 13.203125 36.480469 C 13.074219 36.492188 12.945312 36.496094 12.820312 36.5 Z M 12.730469 36.5 " fill-opacity="1" fill-rule="evenodd"/><g clip-path="url(#7d224d15ae)"><path fill="#008eb1" d="M 12.867188 55.007812 C 6.628906 55.007812 1.550781 49.742188 1.550781 43.269531 C 1.550781 40.949219 2.203125 38.785156 3.332031 36.964844 C 4.433594 38.859375 5.679688 39.917969 6.863281 40.621094 C 6.515625 41.46875 6.339844 42.351562 6.34375 43.269531 C 6.34375 47.003906 9.269531 50.039062 12.867188 50.039062 C 16.46875 50.039062 19.394531 47.003906 19.394531 43.269531 C 19.398438 41.96875 19.0625 40.765625 18.386719 39.65625 C 17.234375 37.769531 15.207031 36.511719 12.902344 36.5 L 12.8125 36.5 L 12.671875 36.503906 C 10.371094 36.480469 8.410156 34.976562 7.636719 32.863281 C 9.269531 31.976562 11.011719 31.53125 12.867188 31.53125 C 14.628906 31.53125 16.289062 31.929688 17.855469 32.734375 C 19.367188 33.511719 20.644531 34.574219 21.6875 35.921875 C 22.5 36.972656 23.121094 38.125 23.550781 39.386719 C 23.976562 40.644531 24.191406 41.9375 24.1875 43.269531 C 24.1875 49.742188 19.109375 55.007812 12.867188 55.007812 Z M 12.867188 55.007812 " fill-opacity="1" fill-rule="evenodd"/></g><path fill="#0d7b4d" d="M 22.425781 27.566406 C 20.394531 26.609375 17.023438 25.824219 14.203125 25.429688 C 13.773438 25.304688 13.339844 25.234375 12.890625 25.21875 L 21.339844 25.21875 C 21.382812 25.289062 21.496094 25.449219 21.542969 25.527344 C 21.820312 26.003906 22.050781 26.507812 22.242188 27.027344 C 22.308594 27.207031 22.367188 27.386719 22.425781 27.566406 M 18.386719 39.652344 C 18.382812 39.65625 18.378906 39.660156 18.375 39.664062 L 18.347656 39.679688 L 18.324219 39.695312 C 18.246094 39.746094 18.171875 39.796875 18.09375 39.847656 C 17.726562 40.085938 17.34375 40.296875 16.945312 40.480469 C 16.390625 39.121094 14.878906 37.371094 12.933594 36.546875 L 12.820312 36.503906 C 12.859375 36.5 12.898438 36.5 12.933594 36.503906 C 15.230469 36.523438 17.238281 37.773438 18.386719 39.652344 " fill-opacity="1" fill-rule="evenodd"/><path fill="#123f50" d="M 47.882812 36.472656 L 47.882812 41.261719 L 53.519531 41.261719 C 52.695312 43.566406 50.488281 45.503906 47.269531 45.503906 C 42.714844 45.503906 39.878906 42.011719 39.878906 37.945312 C 39.878906 32.890625 43.03125 29.769531 47.445312 29.769531 C 49.269531 29.769531 51.632812 30.300781 53.023438 32.601562 L 58.667969 32.601562 C 56.90625 27.367188 52.230469 24.792969 47.375 24.792969 C 40.335938 24.792969 34.765625 30.167969 34.765625 37.980469 C 34.765625 44.8125 39.945312 50.519531 47.234375 50.519531 C 50.519531 50.519531 52.976562 49.382812 54.625 47.578125 L 54.625 50.007812 L 59.269531 50.007812 L 59.269531 36.472656 Z M 74.035156 43.792969 C 72.914062 45.210938 71.582031 45.972656 70.355469 45.972656 C 68.078125 45.972656 66.746094 44.484375 66.746094 41.722656 L 66.746094 32.601562 L 61.875 32.601562 L 61.875 42.195312 C 61.875 47.246094 64.820312 50.554688 69.234375 50.554688 C 71.125 50.554688 72.667969 49.898438 74.03125 48.773438 L 74.03125 50.007812 L 78.902344 50.007812 L 78.902344 32.601562 L 74.03125 32.601562 L 74.03125 43.792969 Z M 94.125 33.621094 C 92.828125 32.75 91.25 32.238281 89.359375 32.238281 C 84.734375 32.238281 80.984375 36.199219 80.984375 41.324219 C 80.984375 46.375 84.734375 50.371094 89.359375 50.371094 C 91.25 50.371094 92.828125 49.863281 94.125 48.992188 L 94.125 50.007812 L 98.992188 50.007812 L 98.992188 32.601562 L 94.125 32.601562 Z M 94.125 44.085938 C 93.039062 45.574219 91.601562 46.082031 90.164062 46.082031 C 87.605469 46.082031 85.820312 43.867188 85.820312 41.324219 C 85.820312 38.742188 87.605469 36.492188 90.164062 36.492188 C 91.601562 36.492188 93.039062 37 94.125 38.527344 Z M 106.902344 32.601562 L 102.03125 32.601562 L 102.03125 50.007812 L 106.898438 50.007812 L 106.898438 39.613281 C 108.300781 38.015625 110.15625 37.214844 112.785156 37.105469 L 112.785156 32.3125 C 110.296875 32.3125 108.40625 33.109375 106.898438 34.566406 L 106.898438 32.601562 Z M 126.375 33.621094 C 125.078125 32.75 123.503906 32.238281 121.613281 32.238281 C 116.988281 32.238281 113.238281 36.238281 113.238281 41.289062 C 113.238281 46.410156 116.988281 50.371094 121.613281 50.371094 C 123.503906 50.371094 125.078125 49.863281 126.375 48.992188 L 126.375 50.007812 L 131.246094 50.007812 L 131.246094 25.144531 L 126.375 25.144531 Z M 126.375 44.085938 C 125.289062 45.609375 123.855469 46.121094 122.417969 46.121094 C 119.859375 46.121094 118.074219 43.867188 118.074219 41.289062 C 118.074219 38.742188 119.859375 36.527344 122.417969 36.527344 C 123.855469 36.527344 125.289062 37.035156 126.375 38.527344 Z M 154.960938 33.621094 C 153.664062 32.75 152.089844 32.238281 150.195312 32.238281 C 145.570312 32.238281 141.824219 36.199219 141.824219 41.324219 C 141.824219 46.375 145.570312 50.371094 150.195312 50.371094 C 152.089844 50.371094 153.664062 49.863281 154.960938 48.992188 L 154.960938 50.007812 L 159.828125 50.007812 L 159.828125 32.601562 L 154.960938 32.601562 Z M 154.960938 44.085938 C 153.875 45.574219 152.4375 46.082031 151.003906 46.082031 C 148.445312 46.082031 146.65625 43.867188 146.65625 41.324219 C 146.65625 38.742188 148.445312 36.492188 151.003906 36.492188 C 152.4375 36.492188 153.875 37 154.960938 38.527344 Z M 172.386719 32.058594 C 170.496094 32.058594 168.953125 32.710938 167.585938 33.835938 L 167.585938 32.601562 L 162.71875 32.601562 L 162.71875 50.007812 L 167.585938 50.007812 L 167.585938 38.816406 C 168.710938 37.398438 170.039062 36.636719 171.265625 36.636719 C 173.542969 36.636719 174.875 38.125 174.875 40.886719 L 174.875 50.007812 L 179.746094 50.007812 L 179.746094 40.449219 C 179.746094 35.363281 176.800781 32.058594 172.386719 32.058594 M 134.667969 50.007812 L 139.539062 50.007812 L 139.539062 32.601562 L 134.667969 32.601562 Z M 134.667969 30.195312 L 139.539062 30.195312 L 139.539062 25.144531 L 134.667969 25.144531 Z M 185.449219 31.351562 C 185.449219 32.351562 184.65625 33.097656 183.710938 33.097656 C 182.769531 33.097656 181.976562 32.351562 181.976562 31.351562 C 181.976562 30.351562 182.769531 29.597656 183.710938 29.597656 C 184.65625 29.597656 185.449219 30.351562 185.449219 31.351562 Z M 185.0625 31.351562 C 185.0625 31.167969 185.027344 30.992188 184.960938 30.820312 C 184.894531 30.652344 184.796875 30.5 184.667969 30.371094 C 184.542969 30.238281 184.394531 30.136719 184.226562 30.066406 C 184.058594 29.992188 183.886719 29.953125 183.703125 29.953125 C 182.984375 29.953125 182.355469 30.566406 182.355469 31.351562 C 182.355469 32.128906 182.984375 32.738281 183.703125 32.738281 C 184.433594 32.738281 185.0625 32.128906 185.0625 31.351562 Z M 184.027344 31.558594 L 184.449219 32.121094 L 184.089844 32.121094 L 183.699219 31.597656 L 183.417969 31.597656 L 183.417969 32.121094 L 183.140625 32.121094 L 183.140625 30.5 L 183.796875 30.5 C 184.140625 30.5 184.398438 30.722656 184.398438 31.054688 C 184.398438 31.308594 184.25 31.484375 184.027344 31.558594 Z M 183.789062 31.328125 C 183.976562 31.328125 184.105469 31.21875 184.105469 31.046875 C 184.105469 30.886719 183.976562 30.773438 183.789062 30.773438 L 183.417969 30.773438 L 183.417969 31.332031 L 183.789062 31.332031 Z M 183.789062 31.328125 " fill-opacity="1" fill-rule="evenodd"/></svg>