<svg xmlns="http://www.w3.org/2000/svg" xmlns:xlink="http://www.w3.org/1999/xlink" width="200" zoomAndPan="magnify" viewBox="0 0 150 52.499999" height="70" preserveAspectRatio="xMidYMid meet" version="1.0"><defs><g/><clipPath id="22c3cc9cba"><path d="M 2.710938 1.488281 L 52 1.488281 L 52 33 L 2.710938 33 Z M 2.710938 1.488281 " clip-rule="nonzero"/></clipPath><clipPath id="f2ef0134be"><path d="M 7 25 L 55.585938 25 L 55.585938 51 L 7 51 Z M 7 25 " clip-rule="nonzero"/></clipPath></defs><g clip-path="url(#22c3cc9cba)"><path fill="#0e384c" d="M 3.714844 12.714844 C 3.304688 14.125 4.945312 16.011719 8.089844 17.738281 C 9.320312 14.328125 11.761719 11.578125 15.429688 11.101562 C 20.445312 10.441406 22.882812 12.375 27.054688 11.375 C 30.8125 10.464844 33.640625 6.417969 39.953125 4.625 C 40.683594 4.417969 41.410156 4.328125 42.140625 4.328125 C 43.484375 3.125 43.988281 1.441406 43.988281 1.441406 L 43.78125 2.941406 C 43.347656 6.011719 40.957031 8.394531 37.878906 8.828125 L 36.375 9.054688 L 37.878906 9.261719 C 40.957031 9.691406 43.347656 12.101562 43.78125 15.148438 L 43.988281 16.648438 L 44.214844 15.148438 C 44.648438 12.101562 47.039062 9.691406 50.117188 9.261719 L 51.621094 9.054688 C 51.621094 9.054688 51.050781 9.375 50.480469 10.078125 C 51.691406 12.941406 51.667969 16.691406 49.457031 20.785156 C 46.996094 25.398438 45.195312 28.964844 43.894531 32.035156 C 39.085938 31.941406 32.660156 30.761719 25.183594 28.671875 C 8.023438 23.921875 0.160156 14.917969 3.714844 12.714844 Z M 33.273438 16.648438 L 33.753906 16.714844 C 34.710938 16.851562 35.460938 17.601562 35.597656 18.554688 L 35.667969 19.011719 L 35.734375 18.554688 C 35.871094 17.601562 36.625 16.851562 37.582031 16.714844 L 38.039062 16.648438 L 37.582031 16.578125 C 36.625 16.441406 35.871094 15.691406 35.734375 14.738281 L 35.667969 14.261719 L 35.597656 14.738281 C 35.460938 15.691406 34.710938 16.441406 33.753906 16.578125 Z M 33.273438 16.648438 " fill-opacity="1" fill-rule="evenodd"/></g><g clip-path="url(#f2ef0134be)"><path fill="#1e84b5" d="M 52.945312 28.328125 C 57.207031 36.964844 45.558594 39.601562 24.796875 33.285156 C 18.644531 31.421875 12.125 28.308594 7.292969 25.078125 C 7.429688 26.171875 7.679688 27.214844 8.046875 28.171875 C 11.167969 36.375 11.988281 40.238281 11.828125 46.171875 C 11.667969 52.605469 17.640625 51.082031 20.035156 43.988281 C 21.21875 40.464844 23.339844 39.625 24.660156 39.445312 C 27.578125 39.601562 28.558594 41.421875 30.175781 45.921875 C 32.636719 52.738281 39.882812 52.671875 40.566406 44.898438 C 40.703125 43.625 40.839844 42.398438 41.046875 41.214844 C 44.101562 41.464844 47.085938 41.238281 49.820312 40.398438 C 56.476562 38.308594 56.773438 31.601562 52.945312 28.328125 Z M 52.945312 28.328125 " fill-opacity="1" fill-rule="nonzero"/></g><path fill="#0c2834" d="M 49.820312 8.78125 C 48.910156 7.28125 47.609375 6.101562 46.152344 5.328125 C 45.261719 4.667969 44.304688 3.28125 44.261719 3.191406 C 44.761719 6.03125 46.972656 8.261719 49.820312 8.78125 Z M 49.820312 8.78125 " fill-opacity="1" fill-rule="nonzero"/><g fill="#1e84b5" fill-opacity="1"><g transform="translate(77.200265, 42.34669)"><g><path d="M 5.59375 -10.359375 C 9.21875 -10.359375 11.03125 -8.628906 11.03125 -5.171875 C 11.03125 -1.722656 9.21875 0 5.59375 0 L 1.109375 0 L 1.109375 -10.359375 Z M 4.4375 -2.484375 L 5.53125 -2.484375 C 6.925781 -2.484375 7.625 -3.226562 7.625 -4.71875 L 7.625 -5.625 C 7.625 -7.125 6.925781 -7.875 5.53125 -7.875 L 4.4375 -7.875 Z M 4.4375 -2.484375 "/></g></g></g><g fill="#1e84b5" fill-opacity="1"><g transform="translate(88.904715, 42.34669)"><g><path d="M 5.015625 -8.125 C 6.460938 -8.125 7.570312 -7.78125 8.34375 -7.09375 C 9.113281 -6.414062 9.5 -5.375 9.5 -3.96875 L 9.5 -3.453125 L 3.53125 -3.453125 C 3.53125 -2.890625 3.65625 -2.460938 3.90625 -2.171875 C 4.164062 -1.878906 4.570312 -1.734375 5.125 -1.734375 C 5.632812 -1.734375 6.003906 -1.835938 6.234375 -2.046875 C 6.472656 -2.253906 6.59375 -2.535156 6.59375 -2.890625 L 9.5 -2.890625 C 9.5 -1.921875 9.128906 -1.164062 8.390625 -0.625 C 7.660156 -0.0820312 6.59375 0.1875 5.1875 0.1875 C 3.71875 0.1875 2.578125 -0.15625 1.765625 -0.84375 C 0.953125 -1.53125 0.546875 -2.570312 0.546875 -3.96875 C 0.546875 -5.332031 0.941406 -6.363281 1.734375 -7.0625 C 2.523438 -7.769531 3.617188 -8.125 5.015625 -8.125 Z M 5.125 -6.21875 C 4.1875 -6.21875 3.660156 -5.769531 3.546875 -4.875 L 6.46875 -4.875 C 6.46875 -5.28125 6.347656 -5.601562 6.109375 -5.84375 C 5.878906 -6.09375 5.550781 -6.21875 5.125 -6.21875 Z M 5.125 -6.21875 "/></g></g></g><g fill="#1e84b5" fill-opacity="1"><g transform="translate(98.939251, 42.34669)"><g><path d="M 6.375 -8.125 C 7.300781 -8.125 7.992188 -7.867188 8.453125 -7.359375 C 8.921875 -6.847656 9.15625 -6.109375 9.15625 -5.140625 L 9.15625 0 L 6.15625 0 L 6.15625 -4.78125 C 6.15625 -5.125 6.066406 -5.394531 5.890625 -5.59375 C 5.710938 -5.800781 5.460938 -5.90625 5.140625 -5.90625 C 4.773438 -5.90625 4.472656 -5.785156 4.234375 -5.546875 C 4.003906 -5.304688 3.890625 -5.015625 3.890625 -4.671875 L 3.890625 0 L 0.90625 0 L 0.90625 -7.9375 L 3.359375 -7.9375 L 3.546875 -6.734375 C 3.859375 -7.160156 4.265625 -7.5 4.765625 -7.75 C 5.273438 -8 5.8125 -8.125 6.375 -8.125 Z M 6.375 -8.125 "/></g></g></g><g fill="#1e84b5" fill-opacity="1"><g transform="translate(108.973787, 42.34669)"><g><path d="M 6.203125 -7.9375 L 6.203125 -5.90625 L 4.515625 -5.90625 L 4.515625 -2.890625 C 4.515625 -2.523438 4.570312 -2.257812 4.6875 -2.09375 C 4.8125 -1.925781 5.035156 -1.84375 5.359375 -1.84375 L 6.203125 -1.84375 L 6.203125 -0.09375 C 5.960938 -0.0078125 5.648438 0.0546875 5.265625 0.109375 C 4.878906 0.160156 4.546875 0.1875 4.265625 0.1875 C 3.390625 0.1875 2.710938 0.0234375 2.234375 -0.296875 C 1.753906 -0.617188 1.515625 -1.164062 1.515625 -1.9375 L 1.515625 -5.90625 L 0.40625 -5.90625 L 0.40625 -7.9375 L 1.640625 -7.9375 L 2.28125 -10.359375 L 4.515625 -10.359375 L 4.515625 -7.9375 Z M 6.203125 -7.9375 "/></g></g></g><g fill="#1e84b5" fill-opacity="1"><g transform="translate(115.653453, 42.34669)"><g><path d="M 4.828125 -8.125 C 6.046875 -8.125 7.035156 -7.921875 7.796875 -7.515625 C 8.554688 -7.109375 8.9375 -6.445312 8.9375 -5.53125 L 8.9375 -2.4375 C 8.9375 -2.269531 8.972656 -2.128906 9.046875 -2.015625 C 9.128906 -1.898438 9.253906 -1.84375 9.421875 -1.84375 L 9.96875 -1.84375 L 9.96875 -0.125 C 9.9375 -0.101562 9.859375 -0.0664062 9.734375 -0.015625 C 9.609375 0.0234375 9.425781 0.0664062 9.1875 0.109375 C 8.957031 0.160156 8.691406 0.1875 8.390625 0.1875 C 7.804688 0.1875 7.328125 0.0976562 6.953125 -0.078125 C 6.578125 -0.253906 6.320312 -0.5 6.1875 -0.8125 C 5.800781 -0.507812 5.375 -0.265625 4.90625 -0.078125 C 4.4375 0.0976562 3.882812 0.1875 3.25 0.1875 C 1.382812 0.1875 0.453125 -0.554688 0.453125 -2.046875 C 0.453125 -2.816406 0.660156 -3.40625 1.078125 -3.8125 C 1.492188 -4.21875 2.09375 -4.492188 2.875 -4.640625 C 3.65625 -4.796875 4.675781 -4.875 5.9375 -4.875 L 5.9375 -5.265625 C 5.9375 -5.578125 5.828125 -5.8125 5.609375 -5.96875 C 5.398438 -6.132812 5.125 -6.21875 4.78125 -6.21875 C 4.46875 -6.21875 4.195312 -6.160156 3.96875 -6.046875 C 3.75 -5.941406 3.640625 -5.765625 3.640625 -5.515625 L 3.640625 -5.46875 L 0.6875 -5.46875 C 0.675781 -5.507812 0.671875 -5.578125 0.671875 -5.671875 C 0.671875 -6.421875 1.03125 -7.015625 1.75 -7.453125 C 2.46875 -7.898438 3.492188 -8.125 4.828125 -8.125 Z M 5.9375 -3.453125 C 5.09375 -3.453125 4.46875 -3.359375 4.0625 -3.171875 C 3.65625 -2.992188 3.453125 -2.75 3.453125 -2.4375 C 3.453125 -1.9375 3.789062 -1.6875 4.46875 -1.6875 C 4.863281 -1.6875 5.207031 -1.789062 5.5 -2 C 5.789062 -2.207031 5.9375 -2.46875 5.9375 -2.78125 Z M 5.9375 -3.453125 "/></g></g></g><g fill="#1e84b5" fill-opacity="1"><g transform="translate(125.68799, 42.34669)"><g><path d="M 1.015625 0 L 1.015625 -10.90625 L 4 -10.90625 L 4 0 Z M 1.015625 0 "/></g></g></g><g fill="#1e84b5" fill-opacity="1"><g transform="translate(60.911984, 22.296406)"><g><path d="M 6.921875 -10.359375 C 7.566406 -10.359375 8.140625 -10.207031 8.640625 -9.90625 C 9.140625 -9.613281 9.53125 -9.207031 9.8125 -8.6875 C 10.09375 -8.175781 10.234375 -7.597656 10.234375 -6.953125 L 10.234375 -6.75 C 10.234375 -6.113281 10.09375 -5.535156 9.8125 -5.015625 C 9.53125 -4.492188 9.140625 -4.082031 8.640625 -3.78125 C 8.140625 -3.488281 7.566406 -3.34375 6.921875 -3.34375 L 4.4375 -3.34375 L 4.4375 0 L 1.109375 0 L 1.109375 -10.359375 Z M 4.4375 -5.765625 L 5.8125 -5.765625 C 6.15625 -5.765625 6.414062 -5.851562 6.59375 -6.03125 C 6.769531 -6.207031 6.859375 -6.453125 6.859375 -6.765625 L 6.859375 -6.890625 C 6.859375 -7.210938 6.769531 -7.460938 6.59375 -7.640625 C 6.414062 -7.816406 6.15625 -7.90625 5.8125 -7.90625 L 4.4375 -7.90625 Z M 4.4375 -5.765625 "/></g></g></g><g fill="#1e84b5" fill-opacity="1"><g transform="translate(71.773956, 22.296406)"><g><path d="M 5.734375 -8.140625 C 5.960938 -8.140625 6.164062 -8.109375 6.34375 -8.046875 C 6.53125 -7.992188 6.625 -7.960938 6.625 -7.953125 L 6.625 -5.453125 L 5.65625 -5.453125 C 5.03125 -5.453125 4.578125 -5.289062 4.296875 -4.96875 C 4.023438 -4.644531 3.890625 -4.164062 3.890625 -3.53125 L 3.890625 0 L 0.90625 0 L 0.90625 -7.9375 L 3.359375 -7.9375 L 3.546875 -6.734375 C 3.734375 -7.203125 4.019531 -7.550781 4.40625 -7.78125 C 4.800781 -8.019531 5.242188 -8.140625 5.734375 -8.140625 Z M 5.734375 -8.140625 "/></g></g></g><g fill="#1e84b5" fill-opacity="1"><g transform="translate(78.453622, 22.296406)"><g><path d="M 1.015625 -8.875 L 1.015625 -10.90625 L 4 -10.90625 L 4 -8.875 Z M 1.015625 0 L 1.015625 -7.9375 L 4 -7.9375 L 4 0 Z M 1.015625 0 "/></g></g></g><g fill="#1e84b5" fill-opacity="1"><g transform="translate(83.463363, 22.296406)"><g><path d="M 11.453125 -8.125 C 12.359375 -8.125 13.035156 -7.863281 13.484375 -7.34375 C 13.929688 -6.832031 14.15625 -6.097656 14.15625 -5.140625 L 14.15625 0 L 11.171875 0 L 11.171875 -4.78125 C 11.171875 -5.125 11.085938 -5.394531 10.921875 -5.59375 C 10.753906 -5.800781 10.519531 -5.90625 10.21875 -5.90625 C 9.863281 -5.90625 9.578125 -5.785156 9.359375 -5.546875 C 9.140625 -5.304688 9.03125 -5.015625 9.03125 -4.671875 L 9.03125 0 L 6.03125 0 L 6.03125 -4.78125 C 6.03125 -5.125 5.945312 -5.394531 5.78125 -5.59375 C 5.613281 -5.800781 5.378906 -5.90625 5.078125 -5.90625 C 4.734375 -5.90625 4.445312 -5.785156 4.21875 -5.546875 C 4 -5.304688 3.890625 -5.015625 3.890625 -4.671875 L 3.890625 0 L 0.90625 0 L 0.90625 -7.9375 L 3.359375 -7.9375 L 3.546875 -6.75 C 3.847656 -7.175781 4.242188 -7.507812 4.734375 -7.75 C 5.234375 -8 5.757812 -8.125 6.3125 -8.125 C 7.507812 -8.125 8.316406 -7.664062 8.734375 -6.75 C 9.035156 -7.175781 9.429688 -7.507812 9.921875 -7.75 C 10.410156 -8 10.921875 -8.125 11.453125 -8.125 Z M 11.453125 -8.125 "/></g></g></g><g fill="#1e84b5" fill-opacity="1"><g transform="translate(98.50764, 22.296406)"><g><path d="M 5.015625 -8.125 C 6.460938 -8.125 7.570312 -7.78125 8.34375 -7.09375 C 9.113281 -6.414062 9.5 -5.375 9.5 -3.96875 L 9.5 -3.453125 L 3.53125 -3.453125 C 3.53125 -2.890625 3.65625 -2.460938 3.90625 -2.171875 C 4.164062 -1.878906 4.570312 -1.734375 5.125 -1.734375 C 5.632812 -1.734375 6.003906 -1.835938 6.234375 -2.046875 C 6.472656 -2.253906 6.59375 -2.535156 6.59375 -2.890625 L 9.5 -2.890625 C 9.5 -1.921875 9.128906 -1.164062 8.390625 -0.625 C 7.660156 -0.0820312 6.59375 0.1875 5.1875 0.1875 C 3.71875 0.1875 2.578125 -0.15625 1.765625 -0.84375 C 0.953125 -1.53125 0.546875 -2.570312 0.546875 -3.96875 C 0.546875 -5.332031 0.941406 -6.363281 1.734375 -7.0625 C 2.523438 -7.769531 3.617188 -8.125 5.015625 -8.125 Z M 5.125 -6.21875 C 4.1875 -6.21875 3.660156 -5.769531 3.546875 -4.875 L 6.46875 -4.875 C 6.46875 -5.28125 6.347656 -5.601562 6.109375 -5.84375 C 5.878906 -6.09375 5.550781 -6.21875 5.125 -6.21875 Z M 5.125 -6.21875 "/></g></g></g><g fill="#1e84b5" fill-opacity="1"><g transform="translate(108.542176, 22.296406)"><g><path d="M 6.046875 -10.53125 C 7.578125 -10.53125 8.789062 -10.144531 9.6875 -9.375 C 10.582031 -8.613281 11.03125 -7.519531 11.03125 -6.09375 L 7.859375 -6.09375 C 7.859375 -6.695312 7.695312 -7.171875 7.375 -7.515625 C 7.0625 -7.867188 6.613281 -8.046875 6.03125 -8.046875 C 5.363281 -8.046875 4.867188 -7.832031 4.546875 -7.40625 C 4.234375 -6.988281 4.078125 -6.40625 4.078125 -5.65625 L 4.078125 -4.6875 C 4.078125 -3.945312 4.234375 -3.363281 4.546875 -2.9375 C 4.867188 -2.507812 5.351562 -2.296875 6 -2.296875 C 6.644531 -2.296875 7.128906 -2.460938 7.453125 -2.796875 C 7.785156 -3.128906 7.953125 -3.597656 7.953125 -4.203125 L 11.03125 -4.203125 C 11.03125 -2.785156 10.59375 -1.695312 9.71875 -0.9375 C 8.851562 -0.1875 7.628906 0.1875 6.046875 0.1875 C 4.285156 0.1875 2.945312 -0.265625 2.03125 -1.171875 C 1.125 -2.078125 0.671875 -3.410156 0.671875 -5.171875 C 0.671875 -6.941406 1.125 -8.273438 2.03125 -9.171875 C 2.945312 -10.078125 4.285156 -10.53125 6.046875 -10.53125 Z M 6.046875 -10.53125 "/></g></g></g><g fill="#1e84b5" fill-opacity="1"><g transform="translate(120.246626, 22.296406)"><g><path d="M 4.828125 -8.125 C 6.046875 -8.125 7.035156 -7.921875 7.796875 -7.515625 C 8.554688 -7.109375 8.9375 -6.445312 8.9375 -5.53125 L 8.9375 -2.4375 C 8.9375 -2.269531 8.972656 -2.128906 9.046875 -2.015625 C 9.128906 -1.898438 9.253906 -1.84375 9.421875 -1.84375 L 9.96875 -1.84375 L 9.96875 -0.125 C 9.9375 -0.101562 9.859375 -0.0664062 9.734375 -0.015625 C 9.609375 0.0234375 9.425781 0.0664062 9.1875 0.109375 C 8.957031 0.160156 8.691406 0.1875 8.390625 0.1875 C 7.804688 0.1875 7.328125 0.0976562 6.953125 -0.078125 C 6.578125 -0.253906 6.320312 -0.5 6.1875 -0.8125 C 5.800781 -0.507812 5.375 -0.265625 4.90625 -0.078125 C 4.4375 0.0976562 3.882812 0.1875 3.25 0.1875 C 1.382812 0.1875 0.453125 -0.554688 0.453125 -2.046875 C 0.453125 -2.816406 0.660156 -3.40625 1.078125 -3.8125 C 1.492188 -4.21875 2.09375 -4.492188 2.875 -4.640625 C 3.65625 -4.796875 4.675781 -4.875 5.9375 -4.875 L 5.9375 -5.265625 C 5.9375 -5.578125 5.828125 -5.8125 5.609375 -5.96875 C 5.398438 -6.132812 5.125 -6.21875 4.78125 -6.21875 C 4.46875 -6.21875 4.195312 -6.160156 3.96875 -6.046875 C 3.75 -5.941406 3.640625 -5.765625 3.640625 -5.515625 L 3.640625 -5.46875 L 0.6875 -5.46875 C 0.675781 -5.507812 0.671875 -5.578125 0.671875 -5.671875 C 0.671875 -6.421875 1.03125 -7.015625 1.75 -7.453125 C 2.46875 -7.898438 3.492188 -8.125 4.828125 -8.125 Z M 5.9375 -3.453125 C 5.09375 -3.453125 4.46875 -3.359375 4.0625 -3.171875 C 3.65625 -2.992188 3.453125 -2.75 3.453125 -2.4375 C 3.453125 -1.9375 3.789062 -1.6875 4.46875 -1.6875 C 4.863281 -1.6875 5.207031 -1.789062 5.5 -2 C 5.789062 -2.207031 5.9375 -2.46875 5.9375 -2.78125 Z M 5.9375 -3.453125 "/></g></g></g><g fill="#1e84b5" fill-opacity="1"><g transform="translate(130.281163, 22.296406)"><g><path d="M 5.734375 -8.140625 C 5.960938 -8.140625 6.164062 -8.109375 6.34375 -8.046875 C 6.53125 -7.992188 6.625 -7.960938 6.625 -7.953125 L 6.625 -5.453125 L 5.65625 -5.453125 C 5.03125 -5.453125 4.578125 -5.289062 4.296875 -4.96875 C 4.023438 -4.644531 3.890625 -4.164062 3.890625 -3.53125 L 3.890625 0 L 0.90625 0 L 0.90625 -7.9375 L 3.359375 -7.9375 L 3.546875 -6.734375 C 3.734375 -7.203125 4.019531 -7.550781 4.40625 -7.78125 C 4.800781 -8.019531 5.242188 -8.140625 5.734375 -8.140625 Z M 5.734375 -8.140625 "/></g></g></g><g fill="#1e84b5" fill-opacity="1"><g transform="translate(136.960829, 22.296406)"><g><path d="M 5.015625 -8.125 C 6.460938 -8.125 7.570312 -7.78125 8.34375 -7.09375 C 9.113281 -6.414062 9.5 -5.375 9.5 -3.96875 L 9.5 -3.453125 L 3.53125 -3.453125 C 3.53125 -2.890625 3.65625 -2.460938 3.90625 -2.171875 C 4.164062 -1.878906 4.570312 -1.734375 5.125 -1.734375 C 5.632812 -1.734375 6.003906 -1.835938 6.234375 -2.046875 C 6.472656 -2.253906 6.59375 -2.535156 6.59375 -2.890625 L 9.5 -2.890625 C 9.5 -1.921875 9.128906 -1.164062 8.390625 -0.625 C 7.660156 -0.0820312 6.59375 0.1875 5.1875 0.1875 C 3.71875 0.1875 2.578125 -0.15625 1.765625 -0.84375 C 0.953125 -1.53125 0.546875 -2.570312 0.546875 -3.96875 C 0.546875 -5.332031 0.941406 -6.363281 1.734375 -7.0625 C 2.523438 -7.769531 3.617188 -8.125 5.015625 -8.125 Z M 5.125 -6.21875 C 4.1875 -6.21875 3.660156 -5.769531 3.546875 -4.875 L 6.46875 -4.875 C 6.46875 -5.28125 6.347656 -5.601562 6.109375 -5.84375 C 5.878906 -6.09375 5.550781 -6.21875 5.125 -6.21875 Z M 5.125 -6.21875 "/></g></g></g></svg>